<svg width="1501" height="977" viewBox="0 0 1501 977" fill="none" xmlns="http://www.w3.org/2000/svg" xmlns:xlink="http://www.w3.org/1999/xlink">
<g id="Builds">
<rect id="c1d104f9c7974288ba1ae0154543ae32 1" width="1500" height="977" fill="url(#pattern0)"/>
<path id="build-3" d="M1 260L273 298L421 559L511 621V644H496V657H517V663H496L501 674H517V684H496V696H517V701H496L501 713H517V720H496V731H517V739H496V751H517V758H416L290 773L273 764L1 758V260Z" fill="#401E26" fill-opacity="0.3" stroke="#913333"/>
<g id="build-2">
<path d="M984 770H779L635 765V744H644V729H635V720L646 714V705H635V685H653L657 674L635 677V671L644 652.5L635 650V641L646 631L635 626V617L653 603H635V589L653 574L635 569L646 552H653L665 543L653 538L676 499H693L705 483L686 474L722 409H747L766 381L843 390L859 373L984 390V770Z" fill="#401E26" fill-opacity="0.3"/>
<path d="M653 655L644 652.5M644 652.5L635 650V641L646 631L635 626V617L653 603H635V589L653 574L635 569L646 552H653L665 543L653 538L676 499H693L705 483L686 474L722 409H747L766 381L843 390L859 373L984 390V770H779L635 765V744H644V729H635V720L646 714V705H635V685H653L657 674L635 677V671L644 652.5Z" stroke="#913333"/>
</g>
<path id="build-1" d="M1122.08 398.42L1283.16 306.041L1314.14 296L1500 344.198V784H1314.14H1204.68H1095.23V752.872H1088V736.807L1095.23 724.757V705.679L1088 697.646V690.617L1095.23 676.56V663.506L1088 656.477V605.267L1095.23 585.185L1109.68 566.107L1088 559.078V546.025L1095.23 535.984V509.877H1088V495.819L1104.52 483.77L1109.68 464.691H1088V442.601L1137.56 414.486V398.42L1122.08 406.453V398.42Z" fill="#401E26" fill-opacity="0.3" stroke="#903333"/>
</g>

<image id="image0_1_8" data-name="c1d104f9c7974288ba1ae0154543ae32.png" width="1500" height="977" xlink:href="data:image/png;base64"></image>
</svg>
  